<svg xmlns="http://www.w3.org/2000/svg" width="920" height="520" viewBox="0 0 920 520">
<rect width="100%" height="100%" fill="white"/>
<text x="460.0" y="34.0" font-family="Arial, sans-serif" font-size="22" font-weight="700" text-anchor="middle" fill="#222">DNS Lookup Mean Runtime</text>
<text x="460.0" y="56.0" font-family="Arial, sans-serif" font-size="13" font-weight="400" text-anchor="middle" fill="#222">C and Rust lines include 95% confidence interval error bars</text>
<line x1="88" y1="428" x2="884" y2="428" stroke="#222" stroke-width="1.2"/>
<line x1="88" y1="70" x2="88" y2="428" stroke="#222" stroke-width="1.2"/>
<line x1="88" y1="428.0" x2="884" y2="428.0" stroke="#e5e5e5" stroke-width="1"/>
<text x="76.0" y="432.0" font-family="Arial, sans-serif" font-size="12" font-weight="400" text-anchor="end" fill="#222">0.00</text>
<line x1="88" y1="356.4" x2="884" y2="356.4" stroke="#e5e5e5" stroke-width="1"/>
<text x="76.0" y="360.4" font-family="Arial, sans-serif" font-size="12" font-weight="400" text-anchor="end" fill="#222">4000</text>
<line x1="88" y1="284.8" x2="884" y2="284.8" stroke="#e5e5e5" stroke-width="1"/>
<text x="76.0" y="288.8" font-family="Arial, sans-serif" font-size="12" font-weight="400" text-anchor="end" fill="#222">8000</text>
<line x1="88" y1="213.2" x2="884" y2="213.2" stroke="#e5e5e5" stroke-width="1"/>
<text x="76.0" y="217.2" font-family="Arial, sans-serif" font-size="12" font-weight="400" text-anchor="end" fill="#222">12000</text>
<line x1="88" y1="141.6" x2="884" y2="141.6" stroke="#e5e5e5" stroke-width="1"/>
<text x="76.0" y="145.6" font-family="Arial, sans-serif" font-size="12" font-weight="400" text-anchor="end" fill="#222">16000</text>
<line x1="88" y1="70.0" x2="884" y2="70.0" stroke="#e5e5e5" stroke-width="1"/>
<text x="76.0" y="74.0" font-family="Arial, sans-serif" font-size="12" font-weight="400" text-anchor="end" fill="#222">20000</text>
<line x1="88.0" y1="428" x2="88.0" y2="434" stroke="#222" stroke-width="1"/>
<text x="88.0" y="454.0" font-family="Arial, sans-serif" font-size="13" font-weight="400" text-anchor="middle" fill="#222">50</text>
<line x1="486.0" y1="428" x2="486.0" y2="434" stroke="#222" stroke-width="1"/>
<text x="486.0" y="454.0" font-family="Arial, sans-serif" font-size="13" font-weight="400" text-anchor="middle" fill="#222">200</text>
<line x1="884.0" y1="428" x2="884.0" y2="434" stroke="#222" stroke-width="1"/>
<text x="884.0" y="454.0" font-family="Arial, sans-serif" font-size="13" font-weight="400" text-anchor="middle" fill="#222">500</text>
<text x="486.0" y="496.0" font-family="Arial, sans-serif" font-size="14" font-weight="700" text-anchor="middle" fill="#222">Hostnames</text>
<text x="22" y="249.0" transform="rotate(-90 22 249.0)" font-family="Arial, sans-serif" font-size="14" font-weight="700" text-anchor="middle" fill="#222">Mean runtime (ms)</text>
<line x1="88.0" y1="404.4" x2="88.0" y2="406.1" stroke="#1f77b4" stroke-width="1.5"/>
<line x1="81.0" y1="404.4" x2="95.0" y2="404.4" stroke="#1f77b4" stroke-width="1.5"/>
<line x1="81.0" y1="406.1" x2="95.0" y2="406.1" stroke="#1f77b4" stroke-width="1.5"/>
<line x1="486.0" y1="345.3" x2="486.0" y2="351.1" stroke="#1f77b4" stroke-width="1.5"/>
<line x1="479.0" y1="345.3" x2="493.0" y2="345.3" stroke="#1f77b4" stroke-width="1.5"/>
<line x1="479.0" y1="351.1" x2="493.0" y2="351.1" stroke="#1f77b4" stroke-width="1.5"/>
<line x1="884.0" y1="239.4" x2="884.0" y2="249.4" stroke="#1f77b4" stroke-width="1.5"/>
<line x1="877.0" y1="239.4" x2="891.0" y2="239.4" stroke="#1f77b4" stroke-width="1.5"/>
<line x1="877.0" y1="249.4" x2="891.0" y2="249.4" stroke="#1f77b4" stroke-width="1.5"/>
<polyline fill="none" stroke="#1f77b4" stroke-width="3" points="88.0,405.3 486.0,348.2 884.0,244.4"/>
<circle cx="88.0" cy="405.3" r="5" fill="#1f77b4" stroke="white" stroke-width="1.5"/>
<circle cx="486.0" cy="348.2" r="5" fill="#1f77b4" stroke="white" stroke-width="1.5"/>
<circle cx="884.0" cy="244.4" r="5" fill="#1f77b4" stroke="white" stroke-width="1.5"/>
<line x1="118" y1="54" x2="146" y2="54" stroke="#1f77b4" stroke-width="3"/>
<circle cx="132" cy="54" r="4.5" fill="#1f77b4"/>
<text x="156.0" y="58.0" font-family="Arial, sans-serif" font-size="13" font-weight="700" text-anchor="start" fill="#222">C</text>
<line x1="88.0" y1="402.9" x2="88.0" y2="404.8" stroke="#d95f02" stroke-width="1.5"/>
<line x1="81.0" y1="402.9" x2="95.0" y2="402.9" stroke="#d95f02" stroke-width="1.5"/>
<line x1="81.0" y1="404.8" x2="95.0" y2="404.8" stroke="#d95f02" stroke-width="1.5"/>
<line x1="486.0" y1="346.1" x2="486.0" y2="350.9" stroke="#d95f02" stroke-width="1.5"/>
<line x1="479.0" y1="346.1" x2="493.0" y2="346.1" stroke="#d95f02" stroke-width="1.5"/>
<line x1="479.0" y1="350.9" x2="493.0" y2="350.9" stroke="#d95f02" stroke-width="1.5"/>
<line x1="884.0" y1="237.5" x2="884.0" y2="247.1" stroke="#d95f02" stroke-width="1.5"/>
<line x1="877.0" y1="237.5" x2="891.0" y2="237.5" stroke="#d95f02" stroke-width="1.5"/>
<line x1="877.0" y1="247.1" x2="891.0" y2="247.1" stroke="#d95f02" stroke-width="1.5"/>
<polyline fill="none" stroke="#d95f02" stroke-width="3" points="88.0,403.9 486.0,348.5 884.0,242.3"/>
<circle cx="88.0" cy="403.9" r="5" fill="#d95f02" stroke="white" stroke-width="1.5"/>
<circle cx="486.0" cy="348.5" r="5" fill="#d95f02" stroke="white" stroke-width="1.5"/>
<circle cx="884.0" cy="242.3" r="5" fill="#d95f02" stroke="white" stroke-width="1.5"/>
<line x1="218" y1="54" x2="246" y2="54" stroke="#d95f02" stroke-width="3"/>
<circle cx="232" cy="54" r="4.5" fill="#d95f02"/>
<text x="256.0" y="58.0" font-family="Arial, sans-serif" font-size="13" font-weight="700" text-anchor="start" fill="#222">Rust</text>
</svg>
