<svg xmlns="http://www.w3.org/2000/svg" width="920" height="520" viewBox="0 0 920 520">
<rect width="100%" height="100%" fill="white"/>
<text x="460.0" y="34.0" font-family="Arial, sans-serif" font-size="22" font-weight="700" text-anchor="middle" fill="#222">Monte Carlo Pi Mean Runtime</text>
<text x="460.0" y="56.0" font-family="Arial, sans-serif" font-size="13" font-weight="400" text-anchor="middle" fill="#222">C and Rust lines include 95% confidence interval error bars</text>
<line x1="88" y1="428" x2="884" y2="428" stroke="#222" stroke-width="1.2"/>
<line x1="88" y1="70" x2="88" y2="428" stroke="#222" stroke-width="1.2"/>
<line x1="88" y1="428.0" x2="884" y2="428.0" stroke="#e5e5e5" stroke-width="1"/>
<text x="76.0" y="432.0" font-family="Arial, sans-serif" font-size="12" font-weight="400" text-anchor="end" fill="#222">0.00</text>
<line x1="88" y1="356.4" x2="884" y2="356.4" stroke="#e5e5e5" stroke-width="1"/>
<text x="76.0" y="360.4" font-family="Arial, sans-serif" font-size="12" font-weight="400" text-anchor="end" fill="#222">2.00</text>
<line x1="88" y1="284.8" x2="884" y2="284.8" stroke="#e5e5e5" stroke-width="1"/>
<text x="76.0" y="288.8" font-family="Arial, sans-serif" font-size="12" font-weight="400" text-anchor="end" fill="#222">4.00</text>
<line x1="88" y1="213.2" x2="884" y2="213.2" stroke="#e5e5e5" stroke-width="1"/>
<text x="76.0" y="217.2" font-family="Arial, sans-serif" font-size="12" font-weight="400" text-anchor="end" fill="#222">6.00</text>
<line x1="88" y1="141.6" x2="884" y2="141.6" stroke="#e5e5e5" stroke-width="1"/>
<text x="76.0" y="145.6" font-family="Arial, sans-serif" font-size="12" font-weight="400" text-anchor="end" fill="#222">8.00</text>
<line x1="88" y1="70.0" x2="884" y2="70.0" stroke="#e5e5e5" stroke-width="1"/>
<text x="76.0" y="74.0" font-family="Arial, sans-serif" font-size="12" font-weight="400" text-anchor="end" fill="#222">10.0</text>
<line x1="88.0" y1="428" x2="88.0" y2="434" stroke="#222" stroke-width="1"/>
<text x="88.0" y="454.0" font-family="Arial, sans-serif" font-size="13" font-weight="400" text-anchor="middle" fill="#222">1M</text>
<line x1="486.0" y1="428" x2="486.0" y2="434" stroke="#222" stroke-width="1"/>
<text x="486.0" y="454.0" font-family="Arial, sans-serif" font-size="13" font-weight="400" text-anchor="middle" fill="#222">5M</text>
<line x1="884.0" y1="428" x2="884.0" y2="434" stroke="#222" stroke-width="1"/>
<text x="884.0" y="454.0" font-family="Arial, sans-serif" font-size="13" font-weight="400" text-anchor="middle" fill="#222">10M</text>
<text x="486.0" y="496.0" font-family="Arial, sans-serif" font-size="14" font-weight="700" text-anchor="middle" fill="#222">Points</text>
<text x="22" y="249.0" transform="rotate(-90 22 249.0)" font-family="Arial, sans-serif" font-size="14" font-weight="700" text-anchor="middle" fill="#222">Mean runtime (ms)</text>
<line x1="88.0" y1="388.1" x2="88.0" y2="392.5" stroke="#1f77b4" stroke-width="1.5"/>
<line x1="81.0" y1="388.1" x2="95.0" y2="388.1" stroke="#1f77b4" stroke-width="1.5"/>
<line x1="81.0" y1="392.5" x2="95.0" y2="392.5" stroke="#1f77b4" stroke-width="1.5"/>
<line x1="486.0" y1="300.5" x2="486.0" y2="314.6" stroke="#1f77b4" stroke-width="1.5"/>
<line x1="479.0" y1="300.5" x2="493.0" y2="300.5" stroke="#1f77b4" stroke-width="1.5"/>
<line x1="479.0" y1="314.6" x2="493.0" y2="314.6" stroke="#1f77b4" stroke-width="1.5"/>
<line x1="884.0" y1="192.8" x2="884.0" y2="214.0" stroke="#1f77b4" stroke-width="1.5"/>
<line x1="877.0" y1="192.8" x2="891.0" y2="192.8" stroke="#1f77b4" stroke-width="1.5"/>
<line x1="877.0" y1="214.0" x2="891.0" y2="214.0" stroke="#1f77b4" stroke-width="1.5"/>
<polyline fill="none" stroke="#1f77b4" stroke-width="3" points="88.0,390.3 486.0,307.6 884.0,203.4"/>
<circle cx="88.0" cy="390.3" r="5" fill="#1f77b4" stroke="white" stroke-width="1.5"/>
<circle cx="486.0" cy="307.6" r="5" fill="#1f77b4" stroke="white" stroke-width="1.5"/>
<circle cx="884.0" cy="203.4" r="5" fill="#1f77b4" stroke="white" stroke-width="1.5"/>
<line x1="118" y1="54" x2="146" y2="54" stroke="#1f77b4" stroke-width="3"/>
<circle cx="132" cy="54" r="4.5" fill="#1f77b4"/>
<text x="156.0" y="58.0" font-family="Arial, sans-serif" font-size="13" font-weight="700" text-anchor="start" fill="#222">C</text>
<line x1="88.0" y1="374.9" x2="88.0" y2="379.1" stroke="#d95f02" stroke-width="1.5"/>
<line x1="81.0" y1="374.9" x2="95.0" y2="374.9" stroke="#d95f02" stroke-width="1.5"/>
<line x1="81.0" y1="379.1" x2="95.0" y2="379.1" stroke="#d95f02" stroke-width="1.5"/>
<line x1="486.0" y1="261.9" x2="486.0" y2="279.4" stroke="#d95f02" stroke-width="1.5"/>
<line x1="479.0" y1="261.9" x2="493.0" y2="261.9" stroke="#d95f02" stroke-width="1.5"/>
<line x1="479.0" y1="279.4" x2="493.0" y2="279.4" stroke="#d95f02" stroke-width="1.5"/>
<line x1="884.0" y1="121.4" x2="884.0" y2="145.9" stroke="#d95f02" stroke-width="1.5"/>
<line x1="877.0" y1="121.4" x2="891.0" y2="121.4" stroke="#d95f02" stroke-width="1.5"/>
<line x1="877.0" y1="145.9" x2="891.0" y2="145.9" stroke="#d95f02" stroke-width="1.5"/>
<polyline fill="none" stroke="#d95f02" stroke-width="3" points="88.0,377.0 486.0,270.7 884.0,133.6"/>
<circle cx="88.0" cy="377.0" r="5" fill="#d95f02" stroke="white" stroke-width="1.5"/>
<circle cx="486.0" cy="270.7" r="5" fill="#d95f02" stroke="white" stroke-width="1.5"/>
<circle cx="884.0" cy="133.6" r="5" fill="#d95f02" stroke="white" stroke-width="1.5"/>
<line x1="218" y1="54" x2="246" y2="54" stroke="#d95f02" stroke-width="3"/>
<circle cx="232" cy="54" r="4.5" fill="#d95f02"/>
<text x="256.0" y="58.0" font-family="Arial, sans-serif" font-size="13" font-weight="700" text-anchor="start" fill="#222">Rust</text>
</svg>
