<svg xmlns="http://www.w3.org/2000/svg" width="920" height="520" viewBox="0 0 920 520">
<rect width="100%" height="100%" fill="white"/>
<text x="460.0" y="34.0" font-family="Arial, sans-serif" font-size="22" font-weight="700" text-anchor="middle" fill="#222">Matrix Multiplication Mean Runtime</text>
<text x="460.0" y="56.0" font-family="Arial, sans-serif" font-size="13" font-weight="400" text-anchor="middle" fill="#222">C and Rust lines include 95% confidence interval error bars</text>
<line x1="88" y1="428" x2="884" y2="428" stroke="#222" stroke-width="1.2"/>
<line x1="88" y1="70" x2="88" y2="428" stroke="#222" stroke-width="1.2"/>
<line x1="88" y1="428.0" x2="884" y2="428.0" stroke="#e5e5e5" stroke-width="1"/>
<text x="76.0" y="432.0" font-family="Arial, sans-serif" font-size="12" font-weight="400" text-anchor="end" fill="#222">0.00</text>
<line x1="88" y1="356.4" x2="884" y2="356.4" stroke="#e5e5e5" stroke-width="1"/>
<text x="76.0" y="360.4" font-family="Arial, sans-serif" font-size="12" font-weight="400" text-anchor="end" fill="#222">4.00</text>
<line x1="88" y1="284.8" x2="884" y2="284.8" stroke="#e5e5e5" stroke-width="1"/>
<text x="76.0" y="288.8" font-family="Arial, sans-serif" font-size="12" font-weight="400" text-anchor="end" fill="#222">8.00</text>
<line x1="88" y1="213.2" x2="884" y2="213.2" stroke="#e5e5e5" stroke-width="1"/>
<text x="76.0" y="217.2" font-family="Arial, sans-serif" font-size="12" font-weight="400" text-anchor="end" fill="#222">12.0</text>
<line x1="88" y1="141.6" x2="884" y2="141.6" stroke="#e5e5e5" stroke-width="1"/>
<text x="76.0" y="145.6" font-family="Arial, sans-serif" font-size="12" font-weight="400" text-anchor="end" fill="#222">16.0</text>
<line x1="88" y1="70.0" x2="884" y2="70.0" stroke="#e5e5e5" stroke-width="1"/>
<text x="76.0" y="74.0" font-family="Arial, sans-serif" font-size="12" font-weight="400" text-anchor="end" fill="#222">20.0</text>
<line x1="88.0" y1="428" x2="88.0" y2="434" stroke="#222" stroke-width="1"/>
<text x="88.0" y="454.0" font-family="Arial, sans-serif" font-size="13" font-weight="400" text-anchor="middle" fill="#222">128x128</text>
<line x1="486.0" y1="428" x2="486.0" y2="434" stroke="#222" stroke-width="1"/>
<text x="486.0" y="454.0" font-family="Arial, sans-serif" font-size="13" font-weight="400" text-anchor="middle" fill="#222">256x256</text>
<line x1="884.0" y1="428" x2="884.0" y2="434" stroke="#222" stroke-width="1"/>
<text x="884.0" y="454.0" font-family="Arial, sans-serif" font-size="13" font-weight="400" text-anchor="middle" fill="#222">512x512</text>
<text x="486.0" y="496.0" font-family="Arial, sans-serif" font-size="14" font-weight="700" text-anchor="middle" fill="#222">Matrix Size</text>
<text x="22" y="249.0" transform="rotate(-90 22 249.0)" font-family="Arial, sans-serif" font-size="14" font-weight="700" text-anchor="middle" fill="#222">Mean runtime (ms)</text>
<line x1="88.0" y1="413.1" x2="88.0" y2="415.3" stroke="#1f77b4" stroke-width="1.5"/>
<line x1="81.0" y1="413.1" x2="95.0" y2="413.1" stroke="#1f77b4" stroke-width="1.5"/>
<line x1="81.0" y1="415.3" x2="95.0" y2="415.3" stroke="#1f77b4" stroke-width="1.5"/>
<line x1="486.0" y1="382.2" x2="486.0" y2="387.5" stroke="#1f77b4" stroke-width="1.5"/>
<line x1="479.0" y1="382.2" x2="493.0" y2="382.2" stroke="#1f77b4" stroke-width="1.5"/>
<line x1="479.0" y1="387.5" x2="493.0" y2="387.5" stroke="#1f77b4" stroke-width="1.5"/>
<line x1="884.0" y1="140.8" x2="884.0" y2="165.0" stroke="#1f77b4" stroke-width="1.5"/>
<line x1="877.0" y1="140.8" x2="891.0" y2="140.8" stroke="#1f77b4" stroke-width="1.5"/>
<line x1="877.0" y1="165.0" x2="891.0" y2="165.0" stroke="#1f77b4" stroke-width="1.5"/>
<polyline fill="none" stroke="#1f77b4" stroke-width="3" points="88.0,414.2 486.0,384.8 884.0,152.9"/>
<circle cx="88.0" cy="414.2" r="5" fill="#1f77b4" stroke="white" stroke-width="1.5"/>
<circle cx="486.0" cy="384.8" r="5" fill="#1f77b4" stroke="white" stroke-width="1.5"/>
<circle cx="884.0" cy="152.9" r="5" fill="#1f77b4" stroke="white" stroke-width="1.5"/>
<line x1="118" y1="54" x2="146" y2="54" stroke="#1f77b4" stroke-width="3"/>
<circle cx="132" cy="54" r="4.5" fill="#1f77b4"/>
<text x="156.0" y="58.0" font-family="Arial, sans-serif" font-size="13" font-weight="700" text-anchor="start" fill="#222">C</text>
<line x1="88.0" y1="409.6" x2="88.0" y2="411.7" stroke="#d95f02" stroke-width="1.5"/>
<line x1="81.0" y1="409.6" x2="95.0" y2="409.6" stroke="#d95f02" stroke-width="1.5"/>
<line x1="81.0" y1="411.7" x2="95.0" y2="411.7" stroke="#d95f02" stroke-width="1.5"/>
<line x1="486.0" y1="377.1" x2="486.0" y2="383.1" stroke="#d95f02" stroke-width="1.5"/>
<line x1="479.0" y1="377.1" x2="493.0" y2="377.1" stroke="#d95f02" stroke-width="1.5"/>
<line x1="479.0" y1="383.1" x2="493.0" y2="383.1" stroke="#d95f02" stroke-width="1.5"/>
<line x1="884.0" y1="122.6" x2="884.0" y2="154.2" stroke="#d95f02" stroke-width="1.5"/>
<line x1="877.0" y1="122.6" x2="891.0" y2="122.6" stroke="#d95f02" stroke-width="1.5"/>
<line x1="877.0" y1="154.2" x2="891.0" y2="154.2" stroke="#d95f02" stroke-width="1.5"/>
<polyline fill="none" stroke="#d95f02" stroke-width="3" points="88.0,410.6 486.0,380.1 884.0,138.4"/>
<circle cx="88.0" cy="410.6" r="5" fill="#d95f02" stroke="white" stroke-width="1.5"/>
<circle cx="486.0" cy="380.1" r="5" fill="#d95f02" stroke="white" stroke-width="1.5"/>
<circle cx="884.0" cy="138.4" r="5" fill="#d95f02" stroke="white" stroke-width="1.5"/>
<line x1="218" y1="54" x2="246" y2="54" stroke="#d95f02" stroke-width="3"/>
<circle cx="232" cy="54" r="4.5" fill="#d95f02"/>
<text x="256.0" y="58.0" font-family="Arial, sans-serif" font-size="13" font-weight="700" text-anchor="start" fill="#222">Rust</text>
</svg>
